<svg width="22" height="22" viewBox="0 0 22 22" fill="none" xmlns="http://www.w3.org/2000/svg"><path fill-rule="evenodd" clip-rule="evenodd" d="M11 1.982c2.937 0 3.285.011 4.445.064 1.072.049 1.655.228 2.043.379.513.2.88.438 1.264.823.385.385.624.751.823 1.264.15.388.33.97.379 2.043.053 1.16.064 1.508.064 4.445 0 2.937-.011 3.285-.064 4.445-.05 1.072-.228 1.655-.379 2.042-.2.514-.438.88-.823 1.265a3.408 3.408 0 0 1-1.264.823c-.388.15-.97.33-2.043.379-1.16.053-1.508.064-4.445.064-2.937 0-3.285-.011-4.445-.064-1.072-.05-1.655-.228-2.042-.379a3.41 3.41 0 0 1-1.265-.823 3.408 3.408 0 0 1-.823-1.265c-.15-.387-.33-.97-.379-2.042-.053-1.16-.064-1.508-.064-4.445 0-2.937.011-3.285.064-4.445.049-1.072.228-1.655.379-2.043.2-.513.438-.88.823-1.264a3.408 3.408 0 0 1 1.264-.823c.388-.15.97-.33 2.043-.379 1.16-.053 1.508-.064 4.445-.064zM11 0C8.013 0 7.638.013 6.465.066c-1.171.054-1.97.24-2.67.512a5.392 5.392 0 0 0-1.949 1.268A5.392 5.392 0 0 0 .577 3.795c-.271.7-.457 1.499-.51 2.67C.012 7.638 0 8.013 0 11c0 2.988.013 3.362.066 4.535.054 1.171.24 1.97.511 2.67a5.392 5.392 0 0 0 1.27 1.949 5.392 5.392 0 0 0 1.948 1.268c.7.273 1.499.458 2.67.512C7.638 21.987 8.013 22 11 22s3.362-.013 4.535-.066c1.171-.054 1.97-.24 2.67-.512a5.391 5.391 0 0 0 1.949-1.268 5.391 5.391 0 0 0 1.268-1.948c.272-.7.458-1.5.512-2.67.053-1.174.066-1.548.066-4.536 0-2.987-.013-3.362-.066-4.535-.054-1.171-.24-1.97-.512-2.67a5.39 5.39 0 0 0-1.268-1.949A5.391 5.391 0 0 0 18.205.578c-.7-.272-1.499-.458-2.67-.512C14.362.013 13.987 0 11 0zm.022 5.37a5.653 5.653 0 1 0 0 11.305 5.653 5.653 0 0 0 0-11.306zm0 9.321a3.67 3.67 0 1 1 0-7.339 3.67 3.67 0 0 1 0 7.34zm7.137-9.584a1.31 1.31 0 1 1-2.62 0 1.31 1.31 0 0 1 2.62 0z" fill="#3E4255"/></svg>