<svg width="25" height="15" viewBox="0 0 25 15" fill="none" xmlns="http://www.w3.org/2000/svg"><path fill-rule="evenodd" clip-rule="evenodd" d="M13.726 14.931s.451-.049.682-.293c.212-.223.205-.644.205-.644s-.029-1.967.902-2.258c.917-.285 2.095 1.903 3.344 2.744.944.636 1.66.497 1.66.497l3.34-.046s1.746-.105.918-1.453c-.068-.11-.483-.998-2.482-2.82-2.095-1.907-1.813-1.598.708-4.898 1.536-2.01 2.15-3.236 1.958-3.76-.182-.502-1.312-.369-1.312-.369l-3.76.023s-.278-.037-.485.084c-.201.119-.332.396-.332.396s-.594 1.555-1.388 2.877c-1.674 2.79-2.343 2.937-2.617 2.764-.637-.404-.478-1.622-.478-2.488 0-2.704.418-3.831-.813-4.123-.408-.097-.709-.16-1.755-.171-1.34-.013-2.476.005-3.119.313-.428.205-.758.664-.556.69.248.033.81.149 1.109.547.385.515.372 1.67.372 1.67s.221 3.183-.518 3.578c-.506.271-1.2-.282-2.693-2.813-.764-1.297-1.342-2.73-1.342-2.73s-.11-.267-.31-.411a1.556 1.556 0 0 0-.577-.229l-3.572.023s-.537.015-.734.244c-.174.203-.013.624-.013.624s2.796 6.423 5.963 9.66c2.904 2.967 6.2 2.772 6.2 2.772h1.495z" fill="#3E4255"/></svg>